<?xml version="1.0" encoding="UTF-8" standalone="no"?>
<svg xml:space="default" version="1.1" viewBox="0 0 250 250" xmlns="http://www.w3.org/2000/svg">
	<title>星ノ宮大学シンボル</title>
  <!--<path fill="#000" stroke="none" d="M0.00 0.00H250.00V250.00H0.00Z" />-->
  <path fill="#fff" stroke="none" d="M125.00 110.00L132.76 96.02 132.50 112.01 146.21 103.79 137.99 117.50 153.98 117.24 140.00 125.00 153.98 132.76 137.99 132.50 146.21 146.21 132.50 137.99 132.76 153.98 125.00 140.00 117.24 153.98 117.50 137.99 103.79 146.21 112.01 132.50 96.02 132.76 110.00 125.00 96.02 117.24 112.01 117.50 103.79 103.79 117.50 112.01 117.24 96.02Z" />
  <path fill="#cff" stroke="none" d="M125.00 105.00L122.00 90.00 125.00 75.00 128.00 90.00Z" />
  <path fill="#cff" stroke="none" d="M125.00 105.00L122.00 90.00 125.00 75.00 128.00 90.00Z" transform="rotate(60 125 125)" />
  <path fill="#cff" stroke="none" d="M125.00 105.00L122.00 90.00 125.00 75.00 128.00 90.00Z" transform="rotate(120 125 125)" />
  <path fill="#cff" stroke="none" d="M125.00 105.00L122.00 90.00 125.00 75.00 128.00 90.00Z" transform="rotate(180 125 125)" />
  <path fill="#cff" stroke="none" d="M125.00 105.00L122.00 90.00 125.00 75.00 128.00 90.00Z" transform="rotate(240 125 125)" />
  <path fill="#cff" stroke="none" d="M125.00 105.00L122.00 90.00 125.00 75.00 128.00 90.00Z" transform="rotate(300 125 125)" />
  <path fill="#cff" stroke="none" d="M125.00 105.00L123.00 96.00 125.00 30.00 127.00 96.00Z" transform="rotate(30 125 125)" />
  <path fill="#cff" stroke="none" d="M125.00 105.00L123.00 96.00 125.00 30.00 127.00 96.00Z" transform="rotate(90 125 125)" />
  <path fill="#cff" stroke="none" d="M125.00 105.00L123.00 96.00 125.00 30.00 127.00 96.00Z" transform="rotate(150 125 125)" />
  <path fill="#cff" stroke="none" d="M125.00 105.00L123.00 96.00 125.00 30.00 127.00 96.00Z" transform="rotate(210 125 125)" />
  <path fill="#cff" stroke="none" d="M125.00 105.00L123.00 96.00 125.00 30.00 127.00 96.00Z" transform="rotate(270 125 125)" />
  <path fill="#cff" stroke="none" d="M125.00 105.00L123.00 96.00 125.00 30.00 127.00 96.00Z" transform="rotate(330 125 125)" />
  <path fill="#bdf8" stroke="none" d="M125.00 90.00L123.00 86.00 125.00 70.00 127.00 86.00Z" transform="rotate(15 125 125)" />
  <path fill="#bdf8" stroke="none" d="M125.00 90.00L123.00 86.00 125.00 70.00 127.00 86.00Z" transform="rotate(45 125 125)" />
  <path fill="#bdf8" stroke="none" d="M125.00 90.00L123.00 86.00 125.00 70.00 127.00 86.00Z" transform="rotate(75 125 125)" />
  <path fill="#bdf8" stroke="none" d="M125.00 90.00L123.00 86.00 125.00 70.00 127.00 86.00Z" transform="rotate(105 125 125)" />
  <path fill="#bdf8" stroke="none" d="M125.00 90.00L123.00 86.00 125.00 70.00 127.00 86.00Z" transform="rotate(135 125 125)" />
  <path fill="#bdf8" stroke="none" d="M125.00 90.00L123.00 86.00 125.00 70.00 127.00 86.00Z" transform="rotate(165 125 125)" />
  <path fill="#bdf8" stroke="none" d="M125.00 90.00L123.00 86.00 125.00 70.00 127.00 86.00Z" transform="rotate(195 125 125)" />
  <path fill="#bdf8" stroke="none" d="M125.00 90.00L123.00 86.00 125.00 70.00 127.00 86.00Z" transform="rotate(225 125 125)" />
  <path fill="#bdf8" stroke="none" d="M125.00 90.00L123.00 86.00 125.00 70.00 127.00 86.00Z" transform="rotate(255 125 125)" />
  <path fill="#bdf8" stroke="none" d="M125.00 90.00L123.00 86.00 125.00 70.00 127.00 86.00Z" transform="rotate(285 125 125)" />
  <path fill="#bdf8" stroke="none" d="M125.00 90.00L123.00 86.00 125.00 70.00 127.00 86.00Z" transform="rotate(315 125 125)" />
  <path fill="#bdf8" stroke="none" d="M125.00 90.00L123.00 86.00 125.00 70.00 127.00 86.00Z" transform="rotate(345 125 125)" />
  <path fill="#8cf" stroke="none" d="M125.00 70.00L120.00 55.00 125.00 20.00 130.00 55.00Z" />
  <path fill="#8cf" stroke="none" d="M125.00 70.00L120.00 55.00 125.00 20.00 130.00 55.00Z" transform="rotate(180 125 125)" />
</svg>
